# xmcd CD database file
#
# Track frame offsets:
#	150
#	39997
#	83796
#	146874
#	184413
#	238072
#	280913
#
# Disc length: 4158 seconds
#
# Revision: 0
# Processed by: cddbd v1.5.2PL0 Copyright (c) Steve Scherf et al.
# Submitted via: CDex 1.70beta2
#
DISCID=63103c07
DTITLE=Johannes Lubbers Dectet - make some noise
DYEAR=2008
DGENRE=Jazz
TTITLE0=eternity
TTITLE1=till death does me part
TTITLE2=black girl
TTITLE3=meditative muse
TTITLE4=paranoid android
TTITLE5=the illegal
TTITLE6=god only knows
EXTD=YEAR: 2008
EXTT0=
EXTT1=
EXTT2=
EXTT3=
EXTT4=
EXTT5=
EXTT6=
PLAYORDER=
